<mxfile host="app.diagrams.net" modified="2023-09-02T14:40:45.777Z" agent="Mozilla/5.0 (Windows NT 10.0; Win64; x64; rv:109.0) Gecko/20100101 Firefox/116.0" version="21.7.2" etag="95_x_HkBsoCvRD2F0JkW" type="github">
  <diagram name="PÃ¡gina-1" id="DvM5QQLTyZQzo3PJOZRy">
    <mxGraphModel>
      <root>
        <mxCell id="0" />
        <mxCell id="1" parent="0" />
      </root>
    </mxGraphModel>
  </diagram>
</mxfile>
